<svg xmlns="http://www.w3.org/2000/svg" viewBox="0 0 1125 2000"><filter id="b"><feGaussianBlur stdDeviation="12" /></filter><path d="M0 0h1125v2e3H0z" fill="#b9a48b" /><g filter="url(#b)" transform="scale(7.812500) translate(0.5 0.5)"><g transform="translate(75 234) rotate(89) scale(53 152)"><path d="M0 0h1125v2e3H0z" fill="#140000" /></g><g transform="translate(134.473628 150.117483) rotate(345.793545) scale(143.000000 43.645715)"><ellipse fill="#f2e2d5" fill-opacity=".501961" cx="0" cy="0" rx="1" ry="1" /></g><g transform="translate(74 75) rotate(269) scale(60 150)"><path d="M0 0h1125v2e3H0z" fill="#edd8c7" /></g><ellipse fill="#000" fill-opacity=".501961" cx="65" cy="113" rx="12" ry="13" /><g transform="translate(69.046994 239.421780) rotate(279.605250) scale(29.533776 117.214477)"><ellipse fill="#644a02" fill-opacity=".501961" cx="0" cy="0" rx="1" ry="1" /></g><path fill="#59653e" fill-opacity=".501961" d="M57 156l40-9-67-8z" /><path fill="#e4d5be" fill-opacity=".501961" d="M-6 110l5 68L84 69z" /><ellipse fill="#000600" fill-opacity=".501961" cx="66" cy="115" rx="11" ry="11" /></g></svg>