<svg xmlns="http://www.w3.org/2000/svg" viewBox="0 0 1440 960"><filter id="b"><feGaussianBlur stdDeviation="12" /></filter><path d="M0 0h1440v960H0z" fill="#546878" /><g filter="url(#b)" transform="scale(5.625000) translate(0.5 0.5)"><ellipse fill="#98e2ff" fill-opacity=".501961" cx="165" cy="19" rx="142" ry="25" /><g transform="translate(70.889349 83.312193) rotate(164.496937) scale(91.193822 34.143628)"><ellipse fill="#0b0000" fill-opacity=".501961" cx="0" cy="0" rx="1" ry="1" /></g><path fill="#c2e3fa" fill-opacity=".501961" d="M6.009136 50.719152 63.661803 50.768377 80.267746 58.280939 108.764364 9.1137z" /><g transform="translate(176.063284 44.310820) rotate(159.621857) scale(18.499885 33.936918)"><ellipse fill="#a8cbe1" fill-opacity=".501961" cx="0" cy="0" rx="1" ry="1" /></g><g transform="translate(13.361163 76.981853) rotate(221.491915) scale(43.427383 21.797407)"><ellipse fill="#000" fill-opacity=".501961" cx="0" cy="0" rx="1" ry="1" /></g><path fill="#1c0b00" fill-opacity=".501961" d="M82 149 81 54l52 98z" /><g transform="translate(139.676760 93.399464) rotate(90.375715) scale(62.497050 17.155596)"><ellipse fill="#473529" fill-opacity=".501961" cx="0" cy="0" rx="1" ry="1" /></g><path d="M0 0h1440v960H0z" fill="#534135" /></g></svg>