<svg xmlns="http://www.w3.org/2000/svg" viewBox="0 0 1440 960"><filter id="b"><feGaussianBlur stdDeviation="12" /></filter><path d="M0 0h1440v960H0z" fill="#1e1913" /><g filter="url(#b)" transform="scale(5.625000) translate(0.5 0.5)"><g transform="translate(145.392522 79.678754) rotate(284.226150) scale(47.634521 82.154414)"><ellipse fill="#594b3c" fill-opacity=".501961" cx="0" cy="0" rx="1" ry="1" /></g><ellipse fill="#000" fill-opacity=".501961" cx="66" cy="157" rx="255" ry="37" /><g transform="translate(0.000000 79.394805) rotate(255.618193) scale(170.702204 60.031102)"><ellipse fill="#000" fill-opacity=".501961" cx="0" cy="0" rx="1" ry="1" /></g><path fill="#aa9990" fill-opacity=".501961" d="M192.784574 114.182768 230.475704 112.142958 225.325969 106.026855 180.85263 108.365529z" /><g transform="translate(121.351592 97.384178) rotate(156.241644) scale(35.790276 23.708234)"><ellipse fill="#5e4c3f" fill-opacity=".501961" cx="0" cy="0" rx="1" ry="1" /></g><path fill="#2c241d" fill-opacity=".501961" d="M245 113 136-16 69 16z" /><g transform="translate(221.050537 5.665480) rotate(446.650090) scale(63.513507 45.350838)"><ellipse fill="#090906" fill-opacity=".501961" cx="0" cy="0" rx="1" ry="1" /></g><path fill="#4b3e2f" fill-opacity=".501961" d="M70.708582 24.120395 123.322723 10.96553l28.56707 64.48578L100.185922 83.980781z" /></g></svg>