<svg xmlns="http://www.w3.org/2000/svg" viewBox="0 0 1440 960"><filter id="b"><feGaussianBlur stdDeviation="12" /></filter><path d="M0 0h1440v960H0z" fill="#a7a8a8" /><g filter="url(#b)" transform="scale(5.625000) translate(0.5 0.5)"><g transform="translate(141.390296 11.201041) rotate(282.640381) scale(48.877260 176.634177)"><ellipse fill="#fff" fill-opacity=".501961" cx="0" cy="0" rx="1" ry="1" /></g><g transform="translate(67.730656 169.000000) rotate(86.170050) scale(30.941123 248.707843)"><ellipse fill="#11151a" fill-opacity=".501961" cx="0" cy="0" rx="1" ry="1" /></g><ellipse fill="#4c4145" fill-opacity=".501961" cx="43" cy="101" rx="126" ry="15" /><g transform="translate(179.267005 15.228804) rotate(96.233614) scale(38.863239 128.839434)"><ellipse fill="#f2ffff" fill-opacity=".501961" cx="0" cy="0" rx="1" ry="1" /></g><ellipse fill="#ae8578" fill-opacity=".501961" cx="60" cy="59" rx="41" ry="41" /><ellipse fill="#dfbfb1" fill-opacity=".501961" cx="196" cy="76" rx="54" ry="29" /><g transform="translate(16.140553 166.202451) rotate(175.349048) scale(87.445254 27.269491)"><ellipse fill="#2f3437" fill-opacity=".501961" cx="0" cy="0" rx="1" ry="1" /></g><ellipse fill="#cfe2f3" fill-opacity=".501961" cx="79" cy="133" rx="99" ry="5" /></g></svg>